<?xml version="1.0" encoding="UTF-8"?>
<svg xmlns="http://www.w3.org/2000/svg" width="36px" height="36px" viewBox="0 0 36 36" version="1.1">
<g id="surface1">
<path style=" stroke:none;fill-rule:nonzero;fill:rgb(20.392157%,82.745099%,60.000002%);fill-opacity:1;" d="M 16.199219 1.355469 C 16.320312 0.605469 16.992188 0.328125 17.5625 0.554688 C 17.898438 0.6875 18.078125 0.949219 18.121094 1.3125 C 18.191406 1.875 18.121094 2.433594 18.121094 2.996094 C 18.121094 5.953125 18.117188 8.910156 18.121094 11.867188 C 18.121094 11.972656 18.078125 12.089844 18.179688 12.179688 C 18.296875 12.1875 18.34375 12.097656 18.410156 12.035156 C 19.621094 10.8125 20.832031 9.589844 22.046875 8.367188 C 22.304688 8.105469 22.597656 7.953125 22.980469 8.003906 C 23.597656 8.09375 23.980469 8.765625 23.730469 9.335938 C 23.632812 9.558594 23.472656 9.738281 23.304688 9.90625 C 21.644531 11.574219 19.988281 13.246094 18.328125 14.910156 C 18.175781 15.058594 18.113281 15.214844 18.117188 15.425781 C 18.121094 17.546875 18.117188 19.671875 18.121094 21.792969 C 18.121094 21.898438 18.082031 22.015625 18.191406 22.109375 C 18.355469 22.085938 18.4375 21.941406 18.542969 21.839844 C 20.832031 19.550781 23.121094 17.257812 25.40625 14.964844 C 25.707031 14.664062 26.054688 14.519531 26.46875 14.644531 C 27.144531 14.84375 27.386719 15.628906 26.921875 16.179688 C 26.585938 16.578125 26.207031 16.9375 25.84375 17.304688 C 23.339844 19.8125 20.832031 22.324219 18.324219 24.828125 C 18.183594 24.96875 18.117188 25.117188 18.117188 25.320312 C 18.121094 28.039062 18.121094 30.757812 18.113281 33.476562 C 18.113281 33.726562 18.191406 33.789062 18.433594 33.789062 C 21.503906 33.78125 24.570312 33.785156 27.636719 33.785156 C 27.816406 33.785156 27.996094 33.792969 28.167969 33.84375 C 28.640625 33.976562 28.910156 34.390625 28.855469 34.898438 C 28.8125 35.316406 28.410156 35.679688 27.964844 35.710938 C 27.914062 35.714844 27.859375 35.710938 27.808594 35.710938 C 21.828125 35.710938 15.84375 35.714844 9.863281 35.710938 C 9.046875 35.710938 8.574219 34.949219 8.96875 34.265625 C 9.179688 33.902344 9.527344 33.785156 9.921875 33.785156 C 11.875 33.785156 13.824219 33.785156 15.777344 33.785156 C 16.195312 33.785156 16.195312 33.785156 16.195312 33.367188 C 16.195312 29.621094 16.195312 25.871094 16.203125 22.121094 C 16.203125 21.871094 16.132812 21.695312 15.953125 21.515625 C 13.414062 18.996094 10.882812 16.46875 8.347656 13.941406 C 8.054688 13.652344 7.859375 13.328125 7.957031 12.894531 C 8.105469 12.222656 8.824219 11.914062 9.40625 12.273438 C 9.527344 12.351562 9.636719 12.449219 9.738281 12.550781 C 11.796875 14.601562 13.855469 16.652344 15.914062 18.707031 C 15.984375 18.777344 16.058594 18.84375 16.136719 18.914062 C 16.230469 18.835938 16.191406 18.746094 16.191406 18.667969 C 16.195312 16.289062 16.191406 13.910156 16.199219 11.535156 C 16.199219 11.328125 16.128906 11.183594 15.984375 11.042969 C 14.566406 9.628906 13.152344 8.210938 11.734375 6.796875 C 11.597656 6.65625 11.457031 6.519531 11.367188 6.34375 C 11.128906 5.890625 11.242188 5.367188 11.632812 5.085938 C 11.992188 4.828125 12.519531 4.890625 12.867188 5.234375 C 13.878906 6.234375 14.890625 7.234375 15.898438 8.238281 C 15.976562 8.316406 16.039062 8.410156 16.109375 8.496094 C 16.136719 8.484375 16.167969 8.472656 16.195312 8.460938 C 16.195312 6.097656 16.195312 3.738281 16.199219 1.355469 Z M 16.199219 1.355469 "/>
<path style=" stroke:none;fill-rule:nonzero;fill:rgb(20.392157%,82.745099%,60.000002%);fill-opacity:1;" d="M 25.542969 22.984375 C 26.339844 22.179688 27.128906 21.390625 27.914062 20.597656 C 28.320312 20.1875 28.839844 20.1875 29.246094 20.589844 C 30.183594 21.527344 31.125 22.464844 32.066406 23.40625 C 32.546875 23.882812 32.558594 24.320312 32.085938 24.796875 C 30.367188 26.535156 28.640625 28.265625 26.917969 30.003906 C 26.203125 30.722656 25.488281 31.4375 24.785156 32.167969 C 24.535156 32.421875 24.261719 32.539062 23.90625 32.550781 C 23.277344 32.570312 22.652344 32.644531 22.023438 32.691406 C 21.886719 32.703125 21.777344 32.777344 21.6875 32.859375 C 21.132812 33.367188 20.484375 33.535156 19.738281 33.472656 C 19.109375 33.421875 19.109375 33.464844 19.105469 32.835938 C 19.105469 32.640625 19.089844 32.445312 19.082031 32.25 C 19.070312 32.054688 19.121094 31.878906 19.242188 31.726562 C 19.476562 31.425781 19.710938 31.121094 19.945312 30.816406 C 20.027344 30.714844 20.078125 30.605469 20.082031 30.46875 C 20.089844 29.867188 20.128906 29.261719 20.175781 28.660156 C 20.191406 28.4375 20.28125 28.277344 20.429688 28.125 C 21.949219 26.597656 23.46875 25.070312 24.988281 23.539062 C 25.167969 23.359375 25.347656 23.179688 25.542969 22.984375 Z M 25.542969 22.984375 "/>
</g>
</svg>
